<svg width="28" height="28" viewBox="0 0 28 28" fill="none" xmlns="http://www.w3.org/2000/svg">
<path fill-rule="evenodd" clip-rule="evenodd" d="M3.33333 3.33333H9C9.55229 3.33333 10 2.88562 10 2.33333V0.999999C10 0.447715 9.55229 0 9 0H2.77778C1.24365 0 0 1.24365 0 2.77778V9C0 9.55229 0.447715 10 1 10H2.33333C2.88562 10 3.33333 9.55229 3.33333 9V3.33333Z" fill="#6470B1"/>
<path fill-rule="evenodd" clip-rule="evenodd" d="M3.33333 24.6667H9C9.55229 24.6667 10 25.1144 10 25.6667V27C10 27.5523 9.55229 28 9 28H2.77778C1.24365 28 0 26.7563 0 25.2222V19C0 18.4477 0.447715 18 1 18H2.33333C2.88562 18 3.33333 18.4477 3.33333 19V24.6667Z" fill="#6470B1"/>
<path fill-rule="evenodd" clip-rule="evenodd" d="M24.6667 3.33333H19C18.4477 3.33333 18 2.88562 18 2.33333V0.999999C18 0.447715 18.4477 0 19 0H25.2222C26.7563 0 28 1.24365 28 2.77778V9C28 9.55229 27.5523 10 27 10H25.6667C25.1144 10 24.6667 9.55229 24.6667 9V3.33333Z" fill="#6470B1"/>
<path fill-rule="evenodd" clip-rule="evenodd" d="M24.6667 24.6667H19C18.4477 24.6667 18 25.1144 18 25.6667V27C18 27.5523 18.4477 28 19 28H25.2222C26.7563 28 28 26.7563 28 25.2222V19C28 18.4477 27.5523 18 27 18H25.6667C25.1144 18 24.6667 18.4477 24.6667 19V24.6667Z" fill="#6470B1"/>
</svg>
