<svg width="100" height="17" viewBox="0 0 100 17" fill="none" xmlns="http://www.w3.org/2000/svg">
<path d="M1.92578 11.459C2.47917 11.7715 3.03906 12.0547 3.60547 12.3086C4.17839 12.556 4.77083 12.7676 5.38281 12.9434C5.99479 13.1126 6.63607 13.2428 7.30664 13.334C7.98372 13.4251 8.70312 13.4707 9.46484 13.4707C10.3828 13.4707 11.1641 13.4121 11.8086 13.2949C12.4531 13.1712 12.9772 13.0052 13.3809 12.7969C13.791 12.582 14.0872 12.3281 14.2695 12.0352C14.4583 11.7422 14.5527 11.4232 14.5527 11.0781C14.5527 10.5247 14.3216 10.0885 13.8594 9.76953C13.3971 9.44401 12.6842 9.28125 11.7207 9.28125C11.2975 9.28125 10.8516 9.31055 10.3828 9.36914C9.91406 9.42122 9.4388 9.47982 8.95703 9.54492C8.48177 9.61003 8.00977 9.67188 7.54102 9.73047C7.07878 9.78255 6.64258 9.80859 6.23242 9.80859C5.54883 9.80859 4.89128 9.7207 4.25977 9.54492C3.63477 9.36914 3.07812 9.10547 2.58984 8.75391C2.10807 8.40234 1.72396 7.96289 1.4375 7.43555C1.15104 6.9082 1.00781 6.29297 1.00781 5.58984C1.00781 5.17318 1.06315 4.75977 1.17383 4.34961C1.29102 3.93945 1.47331 3.54883 1.7207 3.17773C1.97461 2.80013 2.30013 2.45182 2.69727 2.13281C3.0944 1.80729 3.57292 1.52734 4.13281 1.29297C4.69922 1.05859 5.35026 0.876302 6.08594 0.746094C6.82812 0.609375 7.67122 0.541016 8.61523 0.541016C9.29883 0.541016 9.98568 0.580078 10.6758 0.658203C11.3659 0.729818 12.0365 0.833984 12.6875 0.970703C13.3451 1.10742 13.9766 1.27344 14.582 1.46875C15.1875 1.65755 15.7507 1.86914 16.2715 2.10352L14.9141 4.60352C14.4844 4.41471 14.0221 4.24219 13.5273 4.08594C13.0326 3.92318 12.515 3.7832 11.9746 3.66602C11.4342 3.54883 10.8743 3.45768 10.2949 3.39258C9.72201 3.32096 9.13607 3.28516 8.53711 3.28516C7.68424 3.28516 6.98112 3.34701 6.42773 3.4707C5.88086 3.5944 5.44466 3.75391 5.11914 3.94922C4.79362 4.13802 4.56576 4.35286 4.43555 4.59375C4.31185 4.82812 4.25 5.0625 4.25 5.29688C4.25 5.7526 4.45508 6.12695 4.86523 6.41992C5.27539 6.70638 5.90039 6.84961 6.74023 6.84961C7.07878 6.84961 7.46615 6.82682 7.90234 6.78125C8.34505 6.72917 8.80729 6.67383 9.28906 6.61523C9.77734 6.55664 10.2721 6.50456 10.7734 6.45898C11.2812 6.4069 11.7728 6.38086 12.248 6.38086C13.1465 6.38086 13.9408 6.48177 14.6309 6.68359C15.3275 6.88542 15.9102 7.17513 16.3789 7.55273C16.8477 7.92383 17.2025 8.3763 17.4434 8.91016C17.6842 9.4375 17.8047 10.0299 17.8047 10.6875C17.8047 11.5664 17.5996 12.3509 17.1895 13.041C16.7858 13.7246 16.2064 14.304 15.4512 14.7793C14.7025 15.248 13.7975 15.6061 12.7363 15.8535C11.6751 16.0944 10.4935 16.2148 9.19141 16.2148C8.33203 16.2148 7.49219 16.1595 6.67188 16.0488C5.85156 15.9447 5.0638 15.7949 4.30859 15.5996C3.5599 15.3978 2.84375 15.1602 2.16016 14.8867C1.48307 14.6068 0.854818 14.3008 0.275391 13.9688L1.92578 11.459ZM20.1223 0.736328H23.2375V16H20.1223V0.736328ZM26.5023 0.736328H29.598L35.1449 6.30273L40.6918 0.736328H43.7875V16H40.6918V5.02344L35.1449 10.3652L29.598 5.02344V16H26.5023V0.736328ZM46.857 0.736328H49.9527V9.14453C49.9527 9.83464 50.0471 10.4499 50.2359 10.9902C50.4247 11.5241 50.7047 11.9766 51.0758 12.3477C51.4534 12.7188 51.9189 13.002 52.4723 13.1973C53.0257 13.3861 53.6702 13.4805 54.4059 13.4805C55.135 13.4805 55.7763 13.3861 56.3297 13.1973C56.8896 13.002 57.3551 12.7188 57.7262 12.3477C58.1038 11.9766 58.387 11.5241 58.5758 10.9902C58.7646 10.4499 58.859 9.83464 58.859 9.14453V0.736328H61.9547V9.51562C61.9547 10.5182 61.7854 11.4297 61.4469 12.25C61.1083 13.0703 60.6168 13.7734 59.9723 14.3594C59.3277 14.9453 58.5367 15.3978 57.5992 15.7168C56.6682 16.0358 55.6038 16.1953 54.4059 16.1953C53.2079 16.1953 52.1402 16.0358 51.2027 15.7168C50.2717 15.3978 49.484 14.9453 48.8395 14.3594C48.1949 13.7734 47.7034 13.0703 47.3648 12.25C47.0263 11.4297 46.857 10.5182 46.857 9.51562V0.736328ZM65.034 0.736328H72.7977C73.9695 0.736328 74.9852 0.860026 75.8445 1.10742C76.7039 1.34831 77.4168 1.69987 77.9832 2.16211C78.5496 2.62435 78.9695 3.1875 79.243 3.85156C79.5229 4.51562 79.6629 5.26758 79.6629 6.10742C79.6629 6.67383 79.5945 7.21419 79.4578 7.72852C79.3211 8.23633 79.1095 8.70508 78.823 9.13477C78.5431 9.56445 78.1883 9.94857 77.7586 10.2871C77.3289 10.6191 76.8243 10.8958 76.2449 11.1172L79.5652 16H75.7762L72.9051 11.6641H72.8172L68.1297 11.6543V16H65.034V0.736328ZM72.8758 8.97852C73.4617 8.97852 73.9728 8.91016 74.409 8.77344C74.8517 8.63672 75.2195 8.44466 75.5125 8.19727C75.812 7.94987 76.0333 7.65039 76.1766 7.29883C76.3263 6.94076 76.4012 6.54362 76.4012 6.10742C76.4012 5.25456 76.1082 4.59701 75.5223 4.13477C74.9363 3.66602 74.0542 3.43164 72.8758 3.43164H68.1297V8.97852H72.8758ZM81.5898 8.22656C81.5898 7.15234 81.7917 6.14974 82.1953 5.21875C82.599 4.28125 83.1882 3.46745 83.9629 2.77734C84.7376 2.08724 85.6882 1.54362 86.8145 1.14648C87.9473 0.749349 89.2428 0.550781 90.7012 0.550781C91.2285 0.550781 91.7559 0.580078 92.2832 0.638672C92.8171 0.690755 93.3411 0.775391 93.8555 0.892578C94.3763 1.00977 94.8809 1.15951 95.3691 1.3418C95.8639 1.51758 96.3327 1.72917 96.7754 1.97656L95.3496 4.32031C95.0827 4.16406 94.7799 4.02409 94.4414 3.90039C94.1029 3.77018 93.7383 3.66276 93.3477 3.57812C92.9635 3.48698 92.5632 3.41862 92.1465 3.37305C91.7363 3.32747 91.3229 3.30469 90.9062 3.30469C89.9427 3.30469 89.0833 3.42839 88.3281 3.67578C87.5729 3.91667 86.9349 4.25846 86.4141 4.70117C85.8932 5.13737 85.4961 5.66146 85.2227 6.27344C84.9492 6.88542 84.8125 7.55599 84.8125 8.28516C84.8125 9.04036 84.9557 9.73372 85.2422 10.3652C85.5286 10.9967 85.9355 11.5404 86.4629 11.9961C86.9902 12.4518 87.6283 12.8099 88.377 13.0703C89.1257 13.3242 89.9622 13.4512 90.8867 13.4512C91.6224 13.4512 92.2962 13.3698 92.9082 13.207C93.5202 13.0378 94.054 12.8001 94.5098 12.4941C94.9655 12.1882 95.3366 11.8203 95.623 11.3906C95.9095 10.9544 96.0983 10.4661 96.1895 9.92578H90.8574V7.37695H98.9727V7.38672L98.9824 7.37695C99.1452 8.1582 99.194 8.91992 99.1289 9.66211C99.0703 10.3978 98.901 11.0944 98.6211 11.752C98.3477 12.403 97.9701 13.002 97.4883 13.5488C97.0065 14.0957 96.4303 14.5677 95.7598 14.9648C95.0892 15.3555 94.3275 15.6615 93.4746 15.8828C92.6217 16.0977 91.6875 16.2051 90.6719 16.2051C89.2526 16.2051 87.9798 15.9967 86.8535 15.5801C85.7337 15.1634 84.7832 14.5938 84.002 13.8711C83.2207 13.1484 82.6217 12.3021 82.2051 11.332C81.7949 10.362 81.5898 9.32682 81.5898 8.22656Z" fill="#424242"/>
</svg>
